HIERARCHY
ROOT joint_Root
{
	OFFSET 0.0 0.0 0.0
	CHANNELS 6 Xposition Yposition Zposition Zrotation Xrotation Yrotation 
	JOINT Hips
	{
		OFFSET -17.1583 93.1646 452.98
		CHANNELS 6 Xposition Yposition Zposition Zrotation Xrotation Yrotation 
		JOINT Spine
		{
			OFFSET 15.7357 0.0 0.0
			CHANNELS 6 Xposition Yposition Zposition Zrotation Xrotation Yrotation 
			JOINT Chest
			{
				OFFSET 8.98455 -0.406207 0.0
				CHANNELS 6 Xposition Yposition Zposition Zrotation Xrotation Yrotation 
				JOINT Neck
				{
					OFFSET 16.3773 0.0 0.0
					CHANNELS 6 Xposition Yposition Zposition Zrotation Xrotation Yrotation 
					JOINT Head
					{
						OFFSET 6.45672 0.0 0.0
						CHANNELS 6 Xposition Yposition Zposition Zrotation Xrotation Yrotation 
						End Site
						{
							OFFSET 0.0 0.0 0.0
						}
					}
				}
				JOINT Shoulder_L
				{
					OFFSET 12.9942 -0.242716 4.98039
					CHANNELS 6 Xposition Yposition Zposition Zrotation Xrotation Yrotation 
					JOINT UpperArm_L
					{
						OFFSET 5.34809 0.0 0.0
						CHANNELS 6 Xposition Yposition Zposition Zrotation Xrotation Yrotation 
						JOINT LowerArm_L
						{
							OFFSET 24.3286 1.87007e-05 0.0
							CHANNELS 6 Xposition Yposition Zposition Zrotation Xrotation Yrotation 
							JOINT Hand_L
							{
								OFFSET 22.2916 0.0 0.0
								CHANNELS 6 Xposition Yposition Zposition Zrotation Xrotation Yrotation 
								End Site
								{
									OFFSET 0.0 0.0 0.0
								}
							}
						}
					}
				}
				JOINT Shoulder_R
				{
					OFFSET 12.9945 -0.242716 -4.98039
					CHANNELS 6 Xposition Yposition Zposition Zrotation Xrotation Yrotation 
					JOINT UpperArm_R
					{
						OFFSET -5.34813 0.0 0.0
						CHANNELS 6 Xposition Yposition Zposition Zrotation Xrotation Yrotation 
						JOINT LowerArm_R
						{
							OFFSET -24.3289 0.000322201 0.0
							CHANNELS 6 Xposition Yposition Zposition Zrotation Xrotation Yrotation 
							JOINT Hand_R
							{
								OFFSET -22.2915 -0.000108084 0.0
								CHANNELS 6 Xposition Yposition Zposition Zrotation Xrotation Yrotation 
								End Site
								{
									OFFSET 0.0 0.0 0.0
								}
							}
						}
					}
				}
			}
		}
		JOINT UpperLeg_L
		{
			OFFSET -2.19248 -6.46944 0.0
			CHANNELS 6 Xposition Yposition Zposition Zrotation Xrotation Yrotation 
			JOINT LowerLeg_L
			{
				OFFSET 39.0811 0.0 -1.23785e-05
				CHANNELS 6 Xposition Yposition Zposition Zrotation Xrotation Yrotation 
				JOINT Foot_L
				{
					OFFSET 40.9854 0.0 -1.26872e-05
					CHANNELS 6 Xposition Yposition Zposition Zrotation Xrotation Yrotation 
					JOINT Toes_L
					{
						OFFSET 11.7543 0.0 0.0
						CHANNELS 6 Xposition Yposition Zposition Zrotation Xrotation Yrotation 
						End Site
						{
							OFFSET 0.0 0.0 0.0
						}
					}
				}
			}
		}
		JOINT UpperLeg_R
		{
			OFFSET -2.19251 6.46944 0.0
			CHANNELS 6 Xposition Yposition Zposition Zrotation Xrotation Yrotation 
			JOINT LowerLeg_R
			{
				OFFSET -39.0811 -0.00228153 -0.0401928
				CHANNELS 6 Xposition Yposition Zposition Zrotation Xrotation Yrotation 
				JOINT Foot_R
				{
					OFFSET -40.9854 0.0 0.0
					CHANNELS 6 Xposition Yposition Zposition Zrotation Xrotation Yrotation 
					JOINT Toes_R
					{
						OFFSET -11.7543 0.0 0.0
						CHANNELS 6 Xposition Yposition Zposition Zrotation Xrotation Yrotation 
						End Site
						{
							OFFSET 0.0 0.0 0.0
						}
					}
				}
			}
		}
	}
}
MOTION
Frames:	8
Frame Time:	0.0333333
0.000000 0.000000 0.000000 0.000000 0.000000 -0.000000 -1.457140 93.160100 -3.404920 86.672200 0.754354 0.162313 15.735700 0.000005 -0.000001 74.262200 86.491300 -72.214400 8.984550 -0.406207 -0.000000 -0.971604 -2.059050 4.076810 16.377300 -0.000001 -0.000001 0.151342 2.330240 -1.963610 6.456720 -0.000001 -0.000000 -0.893361 2.447230 -3.291610 12.994200 -0.242716 4.980390 -91.487900 5.064740 -73.604500 5.348090 -0.000007 -0.000001 -76.526400 17.817800 2.096280 24.328600 0.000019 0.000005 11.311200 23.526000 -26.615400 22.291600 -0.000001 0.000005 -1.361990 5.023290 6.817870 12.994500 -0.242716 -4.980390 89.548800 1.620030 -74.436100 -5.348130 -0.000001 -0.000004 -74.080400 13.896500 -2.461050 -24.328900 0.000322 -0.000009 -0.360734 -1.279980 -15.699100 -22.291500 -0.000108 -0.000004 2.705540 5.217290 2.282480 -2.192480 -6.469440 -0.000000 -175.264000 2.744210 -6.003120 39.081100 -0.000007 -0.000012 0.191185 -0.517462 20.277900 40.985400 -0.000006 -0.000013 1.566890 9.602770 -70.466500 11.754300 -0.000000 0.000003 0.000513 0.158482 -10.149300 -2.192510 6.469440 -0.000001 -173.770000 6.705760 179.639000 -39.081100 -0.002282 -0.040193 0.030483 -0.136730 11.229400 -40.985400 0.000008 0.000006 0.601867 1.647260 -66.800900 -11.754300 -0.000006 -0.000006 -0.010277 0.273363 -5.466790
0.000000 0.000000 0.000000 0.000000 0.000000 -0.000000 -1.474160 93.181500 -3.479160 86.655300 0.953004 -0.083023 15.735700 0.000005 -0.000001 74.234900 86.442100 -72.181900 8.984550 -0.406207 -0.000000 -0.877222 -2.087680 4.088550 16.377300 -0.000001 -0.000001 -0.517729 2.177040 -1.696180 6.456720 -0.000001 -0.000000 -1.155880 2.373820 -3.115030 12.994200 -0.242716 4.980390 -91.529300 5.245910 -73.722400 5.348090 -0.000007 -0.000001 -75.576800 14.081000 1.419650 24.328600 0.000019 0.000005 10.050600 21.897300 -25.418000 22.291600 -0.000001 0.000005 -2.539210 5.034630 6.574590 12.994500 -0.242716 -4.980390 89.611100 1.415860 -74.640200 -5.348130 -0.000001 -0.000004 -73.625300 10.033200 -2.467570 -24.328900 0.000322 -0.000009 -0.543184 -1.934810 -15.655400 -22.291500 -0.000108 -0.000004 2.475700 5.196060 2.817830 -2.192480 -6.469440 -0.000000 -175.199000 2.757140 -6.291990 39.081100 -0.000007 -0.000012 0.188959 -0.514161 20.179200 40.985400 -0.000006 -0.000013 1.555660 9.777840 -70.357400 11.754300 -0.000000 0.000003 0.000452 0.159629 -10.102700 -2.192510 6.469440 -0.000001 -173.707000 6.804890 179.448000 -39.081100 -0.002282 -0.040193 0.028472 -0.129489 10.984900 -40.985400 0.000008 0.000006 0.549984 1.565980 -66.620600 -11.754300 -0.000006 -0.000006 -0.010635 0.275988 -5.359420
0.000000 0.000000 0.000000 0.000000 0.000000 -0.000000 -1.503590 93.198000 -3.527310 86.610000 1.272220 -0.257178 15.735700 0.000005 -0.000001 74.103000 86.385200 -72.033900 8.984550 -0.406207 -0.000000 -0.770883 -2.133930 4.122220 16.377300 -0.000001 -0.000001 -1.085650 1.963410 -1.397310 6.456720 -0.000001 -0.000000 -1.556910 2.231630 -2.790600 12.994200 -0.242716 4.980390 -91.573400 5.420170 -73.785600 5.348090 -0.000007 -0.000001 -74.290000 9.418570 0.502007 24.328600 0.000019 0.000005 8.719750 20.085400 -24.065300 22.291600 -0.000001 0.000005 -4.101770 5.020080 6.891920 12.994500 -0.242716 -4.980390 89.648400 1.285080 -74.699300 -5.348130 -0.000001 -0.000004 -72.717400 5.541140 -2.344470 -24.328900 0.000322 -0.000009 -0.742799 -2.552100 -16.211100 -22.291500 -0.000108 -0.000004 2.151430 5.184090 3.115390 -2.192480 -6.469440 -0.000000 -175.082000 2.922620 -6.567800 39.081100 -0.000007 -0.000012 0.182440 -0.496658 20.170300 40.985400 -0.000006 -0.000013 1.373600 9.954870 -70.206200 11.754300 -0.000000 0.000003 0.000490 0.158931 -10.131100 -2.192510 6.469440 -0.000001 -173.625000 7.026060 179.333000 -39.081100 -0.002282 -0.040193 0.025717 -0.117835 10.753700 -40.985400 0.000008 0.000006 0.351505 1.496040 -66.427000 -11.754300 -0.000006 -0.000006 -0.010486 0.274900 -5.403940
0.000000 0.000000 0.000000 0.000000 0.000000 -0.000000 -1.551420 93.205900 -3.602180 86.503800 1.508410 -0.416102 15.735700 0.000005 -0.000001 74.032900 86.349500 -71.905000 8.984550 -0.406207 -0.000000 -0.702855 -2.165150 4.240830 16.377300 -0.000001 -0.000001 -1.476760 1.798620 -1.098380 6.456720 -0.000001 -0.000000 -1.985440 2.140940 -2.406050 12.994200 -0.242716 4.980390 -91.615900 5.580260 -73.822500 5.348090 -0.000007 -0.000001 -72.824400 3.716460 -0.289822 24.328600 0.000019 0.000005 7.934140 18.741800 -23.449300 22.291600 -0.000001 0.000005 -5.022130 4.971020 7.930080 12.994500 -0.242716 -4.980390 89.698900 1.106320 -74.774600 -5.348130 -0.000001 -0.000004 -71.454100 0.396014 -2.148320 -24.328900 0.000322 -0.000009 -1.064620 -3.380540 -17.472600 -22.291500 -0.000108 -0.000004 2.177740 5.161430 3.667820 -2.192480 -6.469440 -0.000000 -174.884000 3.100770 -6.928440 39.081100 -0.000007 -0.000012 0.176370 -0.475984 20.331900 40.985400 -0.000006 -0.000013 0.994568 10.085400 -70.047700 11.754300 -0.000000 0.000003 0.000602 0.156791 -10.217900 -2.192510 6.469440 -0.000001 -173.469000 7.123990 179.201000 -39.081100 -0.002282 -0.040193 0.023404 -0.107609 10.562900 -40.985400 0.000008 0.000006 0.197844 1.383580 -66.264600 -11.754300 -0.000006 -0.000006 -0.010379 0.274119 -5.435880
0.000000 0.000000 0.000000 0.000000 0.000000 -0.000000 -1.580350 93.198900 -3.658520 86.424000 1.678390 -0.526096 15.735700 0.000005 -0.000001 74.144000 86.334300 -71.961400 8.984550 -0.406207 -0.000000 -0.668481 -2.163240 4.350830 16.377300 -0.000001 -0.000001 -1.723000 1.614890 -0.769258 6.456720 -0.000001 -0.000000 -2.379070 2.071070 -1.920410 12.994200 -0.242716 4.980390 -91.639700 5.676160 -73.858500 5.348090 -0.000007 -0.000001 -71.251900 -2.860710 -0.899308 24.328600 0.000019 0.000005 7.649700 17.508500 -24.058800 22.291600 -0.000001 0.000005 -4.551640 4.896980 9.430310 12.994500 -0.242716 -4.980390 89.740800 0.956470 -74.839200 -5.348130 -0.000001 -0.000004 -69.947600 -5.566010 -1.824650 -24.328900 0.000322 -0.000009 -1.479810 -4.161510 -19.577600 -22.291500 -0.000108 -0.000004 3.304940 5.130630 4.398870 -2.192480 -6.469440 -0.000000 -174.731000 3.184010 -7.233920 39.081100 -0.000007 -0.000012 0.173439 -0.462839 20.542700 40.985400 -0.000006 -0.000013 0.820956 10.248700 -70.056800 11.754300 -0.000000 0.000003 0.000426 0.160119 -10.082800 -2.192510 6.469440 -0.000001 -173.324000 7.097420 179.058000 -39.081100 -0.002282 -0.040193 0.024091 -0.111683 10.526600 -40.985400 0.000008 0.000006 0.273130 1.208030 -66.244500 -11.754300 -0.000006 -0.000006 -0.010390 0.274198 -5.432630
0.000000 0.000000 0.000000 0.000000 0.000000 -0.000000 -1.621730 93.169900 -3.666790 86.315200 1.869410 -0.538292 15.735700 0.000005 -0.000001 74.143400 86.313900 -71.895500 8.984550 -0.406207 -0.000000 -0.627588 -2.178420 4.482250 16.377300 -0.000001 -0.000001 -1.823490 1.457180 -0.444332 6.456720 -0.000001 -0.000000 -2.693040 1.974350 -1.275530 12.994200 -0.242716 4.980390 -91.663800 5.741240 -73.808900 5.348090 -0.000007 -0.000001 -69.525800 -9.171690 -1.414750 24.328600 0.000019 0.000005 7.424300 15.528000 -25.956300 22.291600 -0.000001 0.000005 -2.428970 4.809730 11.113600 12.994500 -0.242716 -4.980390 89.780500 0.805858 -74.764500 -5.348130 -0.000001 -0.000004 -68.402500 -12.098000 -1.434170 -24.328900 0.000322 -0.000009 -2.253730 -5.359120 -22.827400 -22.291500 -0.000108 -0.000004 5.735240 5.103410 5.029000 -2.192480 -6.469440 -0.000000 -174.586000 3.286960 -7.454620 39.081100 -0.000007 -0.000012 0.179256 -0.470375 20.861700 40.985400 -0.000006 -0.000013 0.834829 10.317500 -70.154200 11.754300 -0.000000 0.000003 0.000512 0.158515 -10.147900 -2.192510 6.469440 -0.000001 -173.151000 7.319460 179.004000 -39.081100 -0.002282 -0.040193 0.026135 -0.122074 10.577900 -40.985400 0.000008 0.000006 0.570365 1.218440 -66.314900 -11.754300 -0.000006 -0.000006 -0.010452 0.274654 -5.413980
0.000000 0.000000 0.000000 0.000000 0.000000 -0.000000 -1.669200 93.161500 -3.657020 86.262500 2.024650 -0.514195 15.735700 0.000005 -0.000001 73.810000 86.338600 -71.525400 8.984550 -0.406207 -0.000000 -0.685456 -2.209710 4.554390 16.377300 -0.000001 -0.000001 -1.654990 1.321090 -0.078227 6.456720 -0.000001 -0.000000 -2.873260 1.876070 -0.465690 12.994200 -0.242716 4.980390 -91.664000 5.708710 -73.719200 5.348090 -0.000007 -0.000001 -67.812400 -15.334700 -1.827520 24.328600 0.000019 0.000005 6.747310 12.432300 -28.799000 22.291600 -0.000001 0.000005 1.599040 4.733980 12.522000 12.994500 -0.242716 -4.980390 89.819300 0.660871 -74.710800 -5.348130 -0.000001 -0.000004 -66.875300 -18.347800 -0.867538 -24.328900 0.000322 -0.000009 -4.463440 -8.641100 -27.430700 -22.291500 -0.000108 -0.000004 9.947830 5.110030 4.895480 -2.192480 -6.469440 -0.000000 -174.478000 3.447450 -7.522030 39.081100 -0.000007 -0.000012 0.178105 -0.464089 20.995800 40.985400 -0.000006 -0.000013 0.705850 10.353100 -70.224900 11.754300 -0.000000 0.000003 0.000490 0.158915 -10.131700 -2.192510 6.469440 -0.000001 -173.053000 7.412630 179.064000 -39.081100 -0.002282 -0.040193 0.026008 -0.122292 10.501800 -40.985400 0.000008 0.000006 0.669420 1.135330 -66.320600 -11.754300 -0.000006 -0.000006 -0.010337 0.273806 -5.448670
0.000000 0.000000 0.000000 0.000000 0.000000 -0.000000 -1.710840 93.134400 -3.624760 86.211100 2.067410 -0.397608 15.735700 0.000005 -0.000001 73.852500 86.379000 -71.536300 8.984550 -0.406207 -0.000000 -0.761203 -2.185940 4.616080 16.377300 -0.000001 -0.000001 -1.320310 1.223810 0.276926 6.456720 -0.000001 -0.000000 -2.839780 1.762410 0.491424 12.994200 -0.242716 4.980390 -91.660000 5.660070 -73.625500 5.348090 -0.000007 -0.000001 -66.279900 -21.543300 -2.455550 24.328600 0.000019 0.000005 5.153860 8.204490 -32.312800 22.291600 -0.000001 0.000005 6.705680 4.639790 14.198000 12.994500 -0.242716 -4.980390 89.846300 0.559228 -74.632200 -5.348130 -0.000001 -0.000004 -65.481400 -24.371700 -0.370264 -24.328900 0.000322 -0.000009 -8.289420 -12.721400 -33.466200 -22.291500 -0.000108 -0.000004 15.517700 5.149410 3.987980 -2.192480 -6.469440 -0.000000 -174.407000 3.604460 -7.512130 39.081100 -0.000007 -0.000012 0.182033 -0.468436 21.236200 40.985400 -0.000006 -0.000013 0.629867 10.262400 -70.346600 11.754300 -0.000000 0.000003 0.000433 0.159981 -10.088400 -2.192510 6.469440 -0.000001 -172.966000 7.493910 179.130000 -39.081100 -0.002282 -0.040193 0.027826 -0.130252 10.647900 -40.985400 0.000008 0.000006 0.825472 1.113650 -66.447300 -11.754300 -0.000006 -0.000006 -0.010557 0.275419 -5.382690
